<mxfile host="app.diagrams.net" modified="2023-11-22T08:26:13.722Z" agent="Mozilla/5.0 (Windows NT 10.0; Win64; x64) AppleWebKit/537.36 (KHTML, like Gecko) Chrome/119.0.0.0 Safari/537.36" version="22.1.3" etag="e15G_H_JX8sPtHEM2HyS" type="github">
  <diagram name="Page-1" id="_Xgtk4nZSMRK2YnKVQfe">
    <mxGraphModel>
      <root>
        <mxCell id="0" />
        <mxCell id="1" parent="0" />
      </root>
    </mxGraphModel>
  </diagram>
</mxfile>
